#N canvas 733 172 450 300 12;
#X msg -107 89 CFS;
#X msg -6 89 CSF;
#X msg 203 89 FCS;
#X msg 333 89 FSC;
#X msg 529 89 SCF;
#X msg 663 89 SFC;
#X obj 229 9 sel 0 1 2 3 4 5;
#X msg -109 439 1;
#X msg -76 439 0;
#X msg -6 439 1;
#X msg 24 439 0;
#X msg 94 439 1;
#X msg 122 439 0;
#X msg -109 399 _100;
#X msg -6 399 _010;
#X msg 94 399 _001;
#X msg 201 439 1;
#X msg 234 439 0;
#X msg 304 439 1;
#X msg 334 439 0;
#X msg 404 439 1;
#X msg 434 439 0;
#X msg 199 401 _000;
#X msg 290 401 _011;
#X msg 333 401 _101;
#X msg 853 439 1;
#X msg 886 439 0;
#X msg 966 439 1;
#X msg 996 439 0;
#X msg 1076 439 1;
#X msg 1104 439 0;
#X msg 853 399 _100;
#X msg 966 399 _010;
#X msg 1076 399 _001;
#X msg 530 439 1;
#X msg 563 439 0;
#X msg 633 439 1;
#X msg 663 439 0;
#X msg 733 439 1;
#X msg 761 439 0;
#X msg 529 399 _000;
#X msg 620 399 _011;
#X msg 750 399 _110;
#X msg 420 401 _110;
#X obj -119 519 tgl~;
#X obj -17 519 tgl~;
#X obj 83 519 tgl~;
#X obj 189 521 tgl~;
#X obj 291 521 tgl~;
#X obj 392 521 tgl~;
#X obj 518 519 tgl~;
#X obj 621 519 tgl~;
#X obj 722 519 tgl~;
#X obj 842 519 tgl~;
#X obj 956 519 tgl~;
#X obj 1066 519 tgl~;
#X msg 663 399 _101;
#X text -119 598 -100-011-000-001 \; -100-000-011-010 \; -010-000-101-001 \; -010-101-000-100 \; -001-110-000-010 \; -001-000-110-100 \;;
#X obj 229 -31 inlet;
#X obj 837 -31 inlet~;
#X obj 956 -31 inlet~;
#X obj -245 -18 inlet~;
#X obj 1064 -31 inlet~;
#X obj -245 778 outlet~;
#X obj 191 778 outlet~;
#X obj 295 778 outlet~;
#X obj 409 778 outlet~;
#X obj -245 19 throw~ in_\$0;
#X obj -245 169 catch~ in_\$0;
#X obj 956 629 throw~ out_\$0;
#X obj -245 749 catch~ out_\$0;
#X obj 191 749 catch~ Cin_\$0;
#X obj 295 749 catch~ Fin_\$0;
#X obj 409 749 catch~ Sin_\$0;
#X obj 837 9 throw~ Cout_\$0;
#X obj 837 169 catch~ Cout_\$0;
#X obj 956 9 throw~ Fout_\$0;
#X obj 1064 9 throw~ Sout_\$0;
#X obj 1066 169 catch~ Sout_\$0;
#X obj 950 169 catch~ Fout_\$0;
#X obj 189 649 throw~ Cin_\$0;
#X obj 291 649 throw~ Fin_\$0;
#X obj 392 649 throw~ Sin_\$0;
#X connect 0 0 13 0;
#X connect 0 0 23 0;
#X connect 0 0 40 0;
#X connect 0 0 33 0;
#X connect 1 0 13 0;
#X connect 1 0 22 0;
#X connect 1 0 41 0;
#X connect 1 0 32 0;
#X connect 2 0 14 0;
#X connect 2 0 22 0;
#X connect 2 0 33 0;
#X connect 2 0 56 0;
#X connect 3 0 14 0;
#X connect 3 0 24 0;
#X connect 3 0 40 0;
#X connect 3 0 31 0;
#X connect 4 0 15 0;
#X connect 4 0 32 0;
#X connect 4 0 43 0;
#X connect 4 0 40 0;
#X connect 5 0 15 0;
#X connect 5 0 31 0;
#X connect 5 0 22 0;
#X connect 5 0 42 0;
#X connect 6 0 0 0;
#X connect 6 1 1 0;
#X connect 6 2 2 0;
#X connect 6 3 3 0;
#X connect 6 4 4 0;
#X connect 6 5 5 0;
#X connect 7 0 44 1;
#X connect 8 0 44 1;
#X connect 9 0 45 1;
#X connect 10 0 45 1;
#X connect 11 0 46 1;
#X connect 12 0 46 1;
#X connect 13 0 7 0;
#X connect 13 0 10 0;
#X connect 13 0 12 0;
#X connect 14 0 8 0;
#X connect 14 0 9 0;
#X connect 14 0 12 0;
#X connect 15 0 8 0;
#X connect 15 0 10 0;
#X connect 15 0 11 0;
#X connect 16 0 47 1;
#X connect 17 0 47 1;
#X connect 18 0 48 1;
#X connect 19 0 48 1;
#X connect 20 0 49 1;
#X connect 21 0 49 1;
#X connect 22 0 17 0;
#X connect 22 0 19 0;
#X connect 22 0 21 0;
#X connect 23 0 17 0;
#X connect 23 0 18 0;
#X connect 23 0 20 0;
#X connect 24 0 16 0;
#X connect 24 0 19 0;
#X connect 24 0 20 0;
#X connect 25 0 53 1;
#X connect 26 0 53 1;
#X connect 27 0 54 1;
#X connect 28 0 54 1;
#X connect 29 0 55 1;
#X connect 30 0 55 1;
#X connect 31 0 25 0;
#X connect 31 0 28 0;
#X connect 31 0 30 0;
#X connect 32 0 26 0;
#X connect 32 0 27 0;
#X connect 32 0 30 0;
#X connect 33 0 26 0;
#X connect 33 0 28 0;
#X connect 33 0 29 0;
#X connect 34 0 50 1;
#X connect 35 0 50 1;
#X connect 36 0 51 1;
#X connect 37 0 51 1;
#X connect 38 0 52 1;
#X connect 39 0 52 1;
#X connect 40 0 35 0;
#X connect 40 0 37 0;
#X connect 40 0 39 0;
#X connect 41 0 35 0;
#X connect 41 0 36 0;
#X connect 41 0 38 0;
#X connect 42 0 34 0;
#X connect 42 0 36 0;
#X connect 42 0 39 0;
#X connect 43 0 16 0;
#X connect 43 0 18 0;
#X connect 43 0 21 0;
#X connect 44 0 80 0;
#X connect 45 0 81 0;
#X connect 46 0 82 0;
#X connect 47 0 80 0;
#X connect 48 0 81 0;
#X connect 49 0 82 0;
#X connect 50 0 80 0;
#X connect 51 0 81 0;
#X connect 52 0 82 0;
#X connect 53 0 69 0;
#X connect 54 0 69 0;
#X connect 55 0 69 0;
#X connect 56 0 34 0;
#X connect 56 0 37 0;
#X connect 56 0 38 0;
#X connect 58 0 6 0;
#X connect 59 0 74 0;
#X connect 60 0 76 0;
#X connect 61 0 67 0;
#X connect 62 0 77 0;
#X connect 68 0 44 0;
#X connect 68 0 45 0;
#X connect 68 0 46 0;
#X connect 70 0 63 0;
#X connect 71 0 64 0;
#X connect 72 0 65 0;
#X connect 73 0 66 0;
#X connect 75 0 48 0;
#X connect 75 0 52 0;
#X connect 75 0 53 0;
#X connect 78 0 47 0;
#X connect 78 0 51 0;
#X connect 78 0 55 0;
#X connect 79 0 49 0;
#X connect 79 0 50 0;
#X connect 79 0 54 0;
