#N canvas 827 239 527 327 12;
#X obj 445 258 wstd_fldr~;
#X obj 498 171 hsl 128 17 1 10 0 0 empty empty empty -2 -8 0 10 #191919 #ffffff #ffffff 0 1;
#X msg 495 198 \$1 20;
#X obj 495 226 line~;
#X obj 271 176 hsl 128 16 2 512 1 0 empty empty STEPS -2 -6 0 12 #7c7c7c #fcfcfc #808080 0 1;
#X obj 268 226 line~;
#X msg 268 197 \$1 20;
#X obj 268 138 max 2;
#X obj 87 426 3route;
#X obj 207 258 wstd_crshr~;
#X obj 701 174 hsl 101 16 1 10 1 1 empty empty FREQUENCY -2 -6 0 12 #00faff #202020 #808080 0 1;
#X obj 698 226 line~;
#X msg 698 197 \$1 20;
#X obj 917 64 inlet;
#X obj 917 151 hv.dispatch \$0 fldr 1;
#X obj 87 64 inlet~;
#X obj 87 1524 outlet~;
#X obj 698 138 r \$0-smthr;
#X obj 268 106 r \$0-crshr;
#X obj 495 138 r \$0-fldr;
#X obj 207 286 throw~ \$0-Cout;
#X obj 207 66 catch~ \$0-Cin;
#X obj 445 96 catch~ \$0-Fin;
#X obj 667 96 catch~ \$0-Sin;
#X obj 667 316 throw~ \$0-Sout;
#X obj 445 286 throw~ \$0-Fout;
#X obj 917 93 hv.dispatch \$0 sqnc 0;
#X obj 107 96 r \$0-sqnc;
#X obj 127 376 catch~ \$0-Cout;
#X obj 245 376 catch~ \$0-Fout;
#X obj 367 376 catch~ \$0-Sout;
#X obj 127 484 throw~ \$0-Cin;
#X obj 245 484 throw~ \$0-Fin;
#X obj 367 484 throw~ \$0-Sin;
#X obj 137 836 -;
#X obj 137 1097 dbtorms~;
#X msg 137 876 100 \$1;
#X obj 137 905 -;
#X obj 137 1066 sig~;
#X obj 667 286 hv.tanh~;
#X obj 667 258 *~;
#X obj 917 122 hv.dispatch \$0 crshr 512;
#X obj 137 674 f;
#X obj 87 1295 *~;
#X obj 917 180 hv.dispatch \$0 smthr 1;
#X obj 917 209 hv.dispatch \$0 lmtr 1;
#X obj 227 891 r \$0-lmtr;
#X obj 227 926 == 0;
#X obj 227 956 t b f;
#X obj 227 1016 spigot;
#X obj 137 1016 spigot;
#X obj 162 986 == 1;
#X msg 227 986 100;
#X obj 137 934 min 100;
#X obj 87 1484 *~;
#X obj 147 1314 r \$0-sqnc;
#X obj 147 1444 line~;
#X obj 147 1343 t b b;
#X obj 147 1373 del 20;
#X msg 147 1403 1 20;
#X msg 186 1403 0 20;
#X obj 137 566 env~ 512 256;
#X obj 191 606 env~ 512 256;
#X obj 191 636 t b f f;
#X connect 0 0 25 0;
#X connect 1 0 2 0;
#X connect 2 0 3 0;
#X connect 3 0 0 2;
#X connect 4 0 6 0;
#X connect 5 0 9 1;
#X connect 6 0 5 0;
#X connect 7 0 4 0;
#X connect 8 0 61 0;
#X connect 8 0 43 0;
#X connect 8 1 31 0;
#X connect 8 2 32 0;
#X connect 8 3 33 0;
#X connect 9 0 20 0;
#X connect 10 0 12 0;
#X connect 11 0 40 1;
#X connect 12 0 11 0;
#X connect 13 0 26 0;
#X connect 14 0 44 0;
#X connect 15 0 8 0;
#X connect 15 0 62 0;
#X connect 17 0 10 0;
#X connect 18 0 7 0;
#X connect 19 0 1 0;
#X connect 21 0 9 0;
#X connect 22 0 0 0;
#X connect 23 0 40 0;
#X connect 26 0 41 0;
#X connect 27 0 8 1;
#X connect 28 0 8 2;
#X connect 29 0 8 3;
#X connect 30 0 8 4;
#X connect 34 0 36 0;
#X connect 35 0 43 1;
#X connect 36 0 37 0;
#X connect 37 0 53 0;
#X connect 38 0 35 0;
#X connect 39 0 24 0;
#X connect 40 0 39 0;
#X connect 41 0 14 0;
#X connect 42 0 34 0;
#X connect 43 0 54 0;
#X connect 44 0 45 0;
#X connect 46 0 47 0;
#X connect 46 0 51 0;
#X connect 47 0 48 0;
#X connect 48 0 52 0;
#X connect 48 1 49 1;
#X connect 49 0 38 0;
#X connect 50 0 38 0;
#X connect 51 0 50 1;
#X connect 52 0 49 0;
#X connect 53 0 50 0;
#X connect 54 0 16 0;
#X connect 55 0 57 0;
#X connect 56 0 54 1;
#X connect 57 0 58 0;
#X connect 57 1 60 0;
#X connect 58 0 59 0;
#X connect 59 0 56 0;
#X connect 60 0 56 0;
#X connect 61 0 42 0;
#X connect 62 0 63 0;
#X connect 63 0 42 0;
#X connect 63 1 34 1;
