#N canvas 827 239 527 327 12;
#X obj 593 39 inlet~;
#X obj 593 359 outlet~;
#X obj 593 311 *~;
#X obj 658 39 inlet;
#X obj 659 259 line~;
#X obj 659 121 == 0;
#X obj 709 89 == 1;
#X obj 709 119 t b f;
#X obj 709 179 spigot;
#X obj 659 150 t b f;
#X obj 659 179 spigot;
#X msg 659 209 0 10;
#X msg 709 209 1 10;
#X obj 709 149 del 10;
#X connect 0 0 2 0;
#X connect 2 0 1 0;
#X connect 3 0 6 0;
#X connect 3 0 5 0;
#X connect 4 0 2 1;
#X connect 5 0 9 0;
#X connect 6 0 7 0;
#X connect 7 0 13 0;
#X connect 7 1 8 1;
#X connect 8 0 12 0;
#X connect 9 0 10 0;
#X connect 9 1 10 1;
#X connect 10 0 11 0;
#X connect 11 0 4 0;
#X connect 12 0 4 0;
#X connect 13 0 8 0;
