#N canvas 827 239 527 327 12;
#X obj 358 250 hradio 20 1 0 6 empty empty empty 0 -8 0 10 #191919 #ffffff #ffffff 0;
#X obj 339 1163 dac~;
#X obj 339 968 *~;
#X obj 339 1086 +~;
#X obj 441 730 clip 0 1;
#X msg 538 823 \$1 100;
#X obj 538 843 line~;
#X obj 441 710 r \$0-mix;
#X obj 409 1043 *~;
#N canvas 0 22 250 374 mix 0;
#X obj 50 80 * 2;
#X obj 50 110 - 1;
#X obj 50 140 t f f;
#X obj 101 200 + 1;
#X msg 50 170 1 \$1;
#X obj 50 200 -;
#X obj 101 230 * 0.5;
#X obj 50 230 * 0.5;
#X obj 50 320 outlet;
#X obj 101 320 outlet;
#X obj 50 50 inlet;
#X connect 0 0 1 0;
#X connect 1 0 2 0;
#X connect 2 0 4 0;
#X connect 2 1 3 0;
#X connect 3 0 6 0;
#X connect 4 0 5 0;
#X connect 5 0 7 0;
#X connect 6 0 9 0;
#X connect 7 0 8 0;
#X connect 10 0 0 0;
#X restore 441 750 pd mix;
#X msg 441 823 \$1 100;
#X obj 441 843 line~;
#X obj 853 279 vsl 17 128 0 1 0 0 empty empty empty 0 -9 0 10 #191919 #ffffff #ffffff 0 1;
#X obj 848 428 s \$0-mix;
#X obj 238 563 manglr;
#X obj 238 219 adc~;
#X msg 358 279 sqnc \$1;
#X obj 358 219 r Sqnc @hv_param 0 5 0 int;
#X obj 848 219 r Mix @hv_param 0 100 50;
#X obj 522 369 hsl 128 16 1 11 0 0 empty empty empty -2 -8 0 10 #191919 #ffffff #ffffff 0 1;
#X obj 444 313 hsl 128 16 2 512 1 0 empty empty STEPS -2 -6 0 12 #7c7c7c #fcfcfc #808080 0 1;
#X obj 591 432 hsl 128 16 1 11 1 1 empty empty empty -2 -6 0 12 #ffffff #202020 #808080 8169 1;
#X msg 441 343 crshr \$1;
#X obj 848 248 / 100;
#X obj 519 968 *~;
#X obj 519 1086 +~;
#X obj 589 1043 *~;
#X obj 24 369 throw~ CleanL;
#X obj 238 599 throw~ DirtyL;
#X obj 193 369 throw~ CleanR;
#X obj 328 599 throw~ DirtyR;
#X obj 339 783 catch~ CleanL;
#X obj 519 783 catch~ CleanR;
#X obj 409 933 catch~ DirtyL;
#X obj 589 933 catch~ DirtyR;
#X msg 519 399 fldr \$1;
#X msg 588 464 smthr \$1;
#X obj 328 563 manglr;
#X obj 588 399 r Smthr @hv_param 1 11 1;
#X obj 519 343 r Fldr @hv_param 1 11 1;
#X obj 441 279 r Crshr @hv_param 2 512 512 int;
#X obj 339 9 loadbang;
#X obj 58 419 r Lmtr @hv_param 0 1 1 bool;
#X obj 58 448 tgl 25 0 empty empty empty 17 7 0 10 #191919 #ffffff #ffffff 0 1;
#X msg 58 479 lmtr \$1;
#X msg 293 139 512;
#X msg 519 139 1;
#X msg 658 139 50;
#X obj 339 38 bng 25 250 50 0 empty empty empty 17 7 0 10 #191919 #ffffff #ffffff;
#X obj -91 358 loadbang;
#X msg -91 387 1;
#X connect 0 0 16 0;
#X connect 2 0 3 0;
#X connect 3 0 1 0;
#X connect 4 0 9 0;
#X connect 5 0 6 0;
#X connect 6 0 8 1;
#X connect 6 0 26 1;
#X connect 7 0 4 0;
#X connect 8 0 3 1;
#X connect 9 0 10 0;
#X connect 9 1 5 0;
#X connect 10 0 11 0;
#X connect 11 0 2 1;
#X connect 11 0 24 1;
#X connect 12 0 13 0;
#X connect 14 0 28 0;
#X connect 15 0 14 0;
#X connect 15 0 27 0;
#X connect 15 1 37 0;
#X connect 15 1 29 0;
#X connect 16 0 14 1;
#X connect 16 0 37 1;
#X connect 17 0 0 0;
#X connect 18 0 23 0;
#X connect 19 0 35 0;
#X connect 20 0 22 0;
#X connect 21 0 36 0;
#X connect 22 0 14 1;
#X connect 22 0 37 1;
#X connect 23 0 12 0;
#X connect 24 0 25 0;
#X connect 25 0 1 1;
#X connect 26 0 25 1;
#X connect 31 0 2 0;
#X connect 32 0 24 0;
#X connect 33 0 8 0;
#X connect 34 0 26 0;
#X connect 35 0 14 1;
#X connect 35 0 37 1;
#X connect 36 0 14 1;
#X connect 36 0 37 1;
#X connect 37 0 30 0;
#X connect 38 0 21 0;
#X connect 39 0 19 0;
#X connect 40 0 20 0;
#X connect 41 0 48 0;
#X connect 42 0 43 0;
#X connect 43 0 44 0;
#X connect 44 0 14 1;
#X connect 44 0 37 1;
#X connect 45 0 20 0;
#X connect 46 0 19 0;
#X connect 46 0 21 0;
#X connect 47 0 23 0;
#X connect 48 0 45 0;
#X connect 48 0 46 0;
#X connect 48 0 47 0;
#X connect 49 0 50 0;
#X connect 50 0 43 0;
